<svg width="103" height="30" viewBox="0 0 103 30" fill="none" xmlns="http://www.w3.org/2000/svg">
<g id="Group">
<path id="Vector" d="M61.7599 6.8931L61.3788 6.61862C63.931 2.84877 66.608 0.644196 71.6001 0.644196C76.6993 0.644196 80.3951 4.01447 80.3951 8.58172V8.6651C80.3951 12.7616 78.2082 15.2806 73.2179 19.5699L65.6331 26.2322H80.6761V29.1282H62.9755C61.8074 29.1282 60.8606 28.1919 60.8606 27.0366V26.6752L71.1469 17.6919C75.4856 13.8386 77.0717 11.6758 77.0717 8.8701C77.0717 5.57453 74.4404 3.48982 71.3524 3.48982C68.837 3.49156 67.0067 4.50438 65.2467 6.42057L64.8883 6.79755C64.112 7.66097 62.7735 7.73915 61.9005 6.96954L61.7599 6.8931Z" fill="#232323"></path>
<path id="Vector_2" d="M97.5987 29.1282C96.4306 29.1282 95.4838 28.1918 95.4838 27.0366L95.5032 22.4624L81.9831 22.4658C81.024 22.4658 80.2142 21.837 79.9543 20.9718L79.7224 20.1362L95.7807 0.840485H98.6245V19.8113H102.998V22.4606H98.6245V29.1282H97.5987ZM95.5032 19.8113V5.3365L83.5763 19.8113H95.5032Z" fill="#232323"></path>
<g id="Group_2">
<path id="Vector_3" d="M38.5227 9.80126V29.1265H35.3152C34.1384 29.1265 33.4674 28.4611 33.4674 27.2937V0.929102H37.0981C37.7516 0.929102 38.3365 1.21922 38.7282 1.67612L52.4661 19.6897V0.929102L55.6823 0.953424C56.8592 0.953424 57.5302 1.61879 57.5302 2.78275L57.5232 29.1265H54.3702C53.6939 29.1265 53.0914 28.8155 52.6997 28.3291L38.5227 9.80126ZM25.2345 3.61142C25.2415 3.61664 25.2467 3.62185 25.252 3.62706C25.2503 3.62532 25.2503 3.62358 25.2485 3.62185L25.2345 3.61142ZM25.252 3.62706C25.2643 3.64617 25.2749 3.66528 25.2872 3.68439C26.8593 5.73782 27.662 8.5157 27.3019 11.4499C26.6204 16.9848 22.0586 20.9753 17.1122 20.3638C13.1793 19.8773 10.1897 16.6287 9.47126 12.5357C7.90267 16.1509 9.02159 20.1588 12.1236 22.7786C13.8222 24.2135 15.2134 24.495 15.2134 24.495C15.0307 24.495 14.8498 24.4898 14.6706 24.4811C9.17968 24.2014 4.81292 19.7088 4.81292 14.2087C4.81292 8.52786 9.46951 3.92239 15.2134 3.92239C18.8582 3.92239 22.0657 5.77778 23.9241 8.58519L23.9891 8.65294C22.6559 3.95019 19.0567 0.5 13.1108 0.5C11.14 0.5 9.28683 1.00033 7.67432 1.87764L7.67784 1.88459L7.65851 1.89502C3.08273 4.44009 0 9.23318 0 14.7212C0 22.8811 6.81362 29.5 15.2099 29.5C23.6026 29.5 30.4233 22.8811 30.4233 14.7212C30.4233 10.3016 28.4208 6.33023 25.252 3.62706Z" fill="#3040E8"></path>
</g>
</g>
</svg>